<svg width="32" height="31" viewBox="0 0 32 31" fill="none" xmlns="http://www.w3.org/2000/svg">
<path d="M29.1429 12.7321H19.4286C19.113 12.7321 18.8571 12.4843 18.8571 12.1786V2.76786C18.8571 1.23932 17.5778 0 16 0C14.4222 0 13.1429 1.23932 13.1429 2.76786V12.1786C13.1429 12.4843 12.887 12.7321 12.5714 12.7321H2.85714C1.2793 12.7321 0 13.9715 0 15.5C0 17.0285 1.2793 18.2679 2.85714 18.2679H12.5714C12.887 18.2679 13.1429 18.5157 13.1429 18.8214V28.2321C13.1429 29.7607 14.4222 31 16 31C17.5778 31 18.8571 29.7607 18.8571 28.2321V18.8214C18.8571 18.5157 19.113 18.2679 19.4286 18.2679H29.1429C30.7207 18.2679 32 17.0285 32 15.5C32 13.9715 30.7207 12.7321 29.1429 12.7321Z" fill="white"/>
</svg>
