<svg width="43" height="42" viewBox="0 0 43 42" fill="none" xmlns="http://www.w3.org/2000/svg">
<path d="M39.1607 17.25H26.1071C25.6831 17.25 25.3393 16.9142 25.3393 16.5V3.75C25.3393 1.67908 23.6202 0 21.5 0C19.3798 0 17.6607 1.67908 17.6607 3.75V16.5C17.6607 16.9142 17.3169 17.25 16.8929 17.25H3.83929C1.71906 17.25 0 18.9291 0 21C0 23.0709 1.71906 24.75 3.83929 24.75H16.8929C17.3169 24.75 17.6607 25.0858 17.6607 25.5V38.25C17.6607 40.3209 19.3798 42 21.5 42C23.6202 42 25.3393 40.3209 25.3393 38.25V25.5C25.3393 25.0858 25.6831 24.75 26.1071 24.75H39.1607C41.2809 24.75 43 23.0709 43 21C43 18.9291 41.2809 17.25 39.1607 17.25Z" fill="white" fill-opacity="0.61"/>
</svg>
