<svg width="20" height="34" viewBox="0 0 20 34" fill="none" xmlns="http://www.w3.org/2000/svg">
<path d="M0.543028 18.3267L15.6926 33.4568C16.043 33.8071 16.5108 34 17.0095 34C17.5082 34 17.976 33.8071 18.3264 33.4568L19.442 32.3429C20.168 31.617 20.168 30.4372 19.442 29.7124L6.72055 17.007L19.4561 4.28756C19.8065 3.93733 20 3.47046 20 2.97263C20 2.47424 19.8065 2.00736 19.4561 1.65686L18.3405 0.543165C17.9898 0.192941 17.5224 0 17.0236 0C16.5249 0 16.0571 0.192941 15.7067 0.543165L0.543028 15.6871C0.191806 16.0385 -0.00110234 16.5076 4.73871e-06 17.0062C-0.00110234 17.5068 0.191806 17.9756 0.543028 18.3267Z" fill="#FF2323"/>
</svg>
