<svg width="32" height="20" viewBox="0 0 32 20" fill="none" xmlns="http://www.w3.org/2000/svg">
<path d="M31.9012 16.316C31.7785 16.12 31.5639 16 31.3332 16H0.666546C0.435858 16 0.221233 16.12 0.099858 16.316C-0.0214546 16.512 -0.0334546 16.7573 0.0705454 16.964C1.00655 18.8373 2.88786 20 4.98117 20H27.0185C29.1105 20 30.9918 18.8373 31.9305 16.9653C32.0319 16.7573 32.0225 16.5133 31.9012 16.316Z" fill="#7E7E7E"/>
<path d="M17.828 2.80531C17.9373 2.55862 18 2.28662 18 2C18 0.897313 17.1027 0 16 0C14.8973 0 14 0.897313 14 2C14 2.28669 14.0627 2.55869 14.172 2.80531C8.13067 3.636 3.35998 8.5 2.74798 14.6667H29.2507C28.6387 8.50269 23.8667 3.636 17.828 2.80531ZM15.3773 6.66531C11.648 6.912 8.43598 9.34663 7.19729 12.868C7.10129 13.1413 6.84261 13.3133 6.56798 13.3133C6.49467 13.3133 6.41998 13.3013 6.34667 13.276C5.99998 13.1533 5.81736 12.7733 5.93867 12.4253C7.35467 8.39862 11.0254 5.616 15.2894 5.33463C15.6427 5.31194 15.9734 5.58794 15.9987 5.95594C16.0227 6.324 15.7453 6.64131 15.3773 6.66531Z" fill="#7E7E7E"/>
</svg>
