<svg width="31" height="30" viewBox="0 0 31 30" fill="none" xmlns="http://www.w3.org/2000/svg">
<path d="M30.1642 13.0486C30.1635 13.0479 30.1628 13.0472 30.1621 13.0465L17.5165 0.809326C16.9775 0.287476 16.2609 0 15.4986 0C14.7363 0 14.0197 0.287247 13.4805 0.809097L0.841539 13.0401C0.837282 13.0442 0.833024 13.0486 0.828767 13.0527C-0.278105 14.13 -0.276213 15.878 0.834207 16.9526C1.34152 17.4438 2.01156 17.7283 2.72795 17.758C2.75704 17.7608 2.78637 17.7621 2.81593 17.7621H3.31994V26.768C3.31994 28.55 4.81824 30 6.66019 30H11.6075C12.1089 30 12.5157 29.6066 12.5157 29.1211V22.0605C12.5157 21.2473 13.1992 20.5859 14.0396 20.5859H16.9576C17.798 20.5859 18.4815 21.2473 18.4815 22.0605V29.1211C18.4815 29.6066 18.8881 30 19.3897 30H24.337C26.179 30 27.6773 28.55 27.6773 26.768V17.7621H28.1446C28.9067 17.7621 29.6233 17.4749 30.1628 16.953C31.2744 15.8766 31.2749 14.1257 30.1642 13.0486Z" fill="white"/>
</svg>
