<svg width="20" height="20" viewBox="0 0 20 20" fill="none" xmlns="http://www.w3.org/2000/svg">
<path d="M19.2519 15.7606L15.9601 12.4688C16.5586 11.2718 16.9576 9.87531 16.9576 8.4788C16.9576 3.79052 13.1671 0 8.4788 0C3.79052 0 0 3.79052 0 8.4788C0 13.1671 3.79052 16.9576 8.4788 16.9576C9.87531 16.9576 11.2718 16.5586 12.4688 15.9601L15.7606 19.2519C16.7581 20.2494 18.2544 20.2494 19.2519 19.2519C20.1496 18.2544 20.1496 16.7581 19.2519 15.7606ZM8.4788 14.9626C4.88778 14.9626 1.99501 12.0698 1.99501 8.4788C1.99501 4.88778 4.88778 1.99501 8.4788 1.99501C12.0698 1.99501 14.9626 4.88778 14.9626 8.4788C14.9626 12.0698 12.0698 14.9626 8.4788 14.9626Z" fill="white"/>
</svg>
