<svg width="23" height="28" viewBox="0 0 23 28" fill="none" xmlns="http://www.w3.org/2000/svg">
<path d="M17.1521 3.14277L16.2117 4.77002L19.4701 6.65083L20.4106 5.02353C20.6696 4.57183 20.5153 3.99869 20.0654 3.73773L18.4381 2.7973C17.988 2.53661 17.4131 2.69084 17.1521 3.14277Z" fill="#7E7E7E"/>
<path d="M11.375 4.23477C11.9698 4.23477 12.5508 4.29297 13.125 4.375V2.85293L14.3281 2.84374V0.875C14.3281 0.391359 13.9367 0 13.4531 0H9.30606C8.82242 0 8.43106 0.391359 8.43106 0.875V2.84374L9.62499 2.85293V4.375C10.1992 4.29297 10.7802 4.23477 11.375 4.23477Z" fill="#7E7E7E"/>
<path d="M11.375 5.25C5.09275 5.25 0 10.3427 0 16.625C0 22.9073 5.09275 28 11.375 28C17.6572 28 22.75 22.9073 22.75 16.625C22.75 10.3427 17.6572 5.25 11.375 5.25ZM16.6907 21.9713L10.0625 17.3826V10.9044H11.9753V16.3804L17.7793 20.3986L16.6907 21.9713Z" fill="#7E7E7E"/>
</svg>
